<?xml version="1.0" encoding="UTF-8"?>
<svg version="1.1" xmlns="http://www.w3.org/2000/svg" width="24" height="24">
<path d="M0 0 C1.27423828 -0.00193359 1.27423828 -0.00193359 2.57421875 -0.00390625 C3.91419922 0.00189453 3.91419922 0.00189453 5.28125 0.0078125 C6.17457031 0.00394531 7.06789063 0.00007813 7.98828125 -0.00390625 C8.83777344 -0.00261719 9.68726563 -0.00132813 10.5625 0 C11.34689453 0.00112793 12.13128906 0.00225586 12.93945312 0.00341797 C14.78125 0.1328125 14.78125 0.1328125 15.78125 1.1328125 C15.85423372 4.40339535 15.7773513 7.66290869 15.71875 10.93359375 C15.66532686 14.30248396 15.66532686 14.30248396 16.78125 18.1328125 C12.82125 18.1328125 8.86125 18.1328125 4.78125 18.1328125 C4.78125 16.4828125 4.78125 14.8328125 4.78125 13.1328125 C7.42125 13.1328125 10.06125 13.1328125 12.78125 13.1328125 C12.78125 9.8328125 12.78125 6.5328125 12.78125 3.1328125 C7.83125 3.1328125 2.88125 3.1328125 -2.21875 3.1328125 C-2.21875 4.1228125 -2.21875 5.1128125 -2.21875 6.1328125 C-3.20875 6.1328125 -4.19875 6.1328125 -5.21875 6.1328125 C-5.261471 4.46669345 -5.25938832 2.79898365 -5.21875 1.1328125 C-3.66268249 -0.42325501 -2.15917629 0.00310481 0 0 Z " fill="#3B82F6" transform="translate(7.21875,0.8671875)"/>
<path d="M0 0 C3.63 0 7.26 0 11 0 C11.02685412 2.31243792 11.04632841 4.6249627 11.0625 6.9375 C11.07410156 8.22527344 11.08570313 9.51304688 11.09765625 10.83984375 C11 14 11 14 10 15 C6.66381769 15.14257189 3.34024394 15.04228157 0 15 C0 10.05 0 5.1 0 0 Z M2 2 C2 4.97 2 7.94 2 11 C4.31 11 6.62 11 9 11 C9 8.03 9 5.06 9 2 C6.69 2 4.38 2 2 2 Z " fill="#3B82F6" transform="translate(0,8)"/>
</svg>
